<?xml version="1.0" encoding="UTF-8"?>
<svg version="1.1" xmlns="http://www.w3.org/2000/svg" width="1254" height="1254">
<path d="M0 0 C413.82 0 827.64 0 1254 0 C1254 413.82 1254 827.64 1254 1254 C840.18 1254 426.36 1254 0 1254 C0 840.18 0 426.36 0 0 Z " fill="#0059FD" transform="translate(0,0)"/>
<path d="M0 0 C4.7385235 2.06332105 9.69199159 3.53114755 14.6015625 5.1328125 C17.68636512 6.14923685 20.76909651 7.17182759 23.8515625 8.1953125 C24.96821289 8.56342041 24.96821289 8.56342041 26.10742188 8.93896484 C30.34230328 10.34400438 34.53239316 11.83238878 38.70361328 13.41625977 C41.59306582 14.50714518 44.50363398 15.53692403 47.4140625 16.5703125 C52.61132678 18.42093752 57.80225538 20.28708729 62.984375 22.1796875 C64.6856877 22.79927004 66.38873353 23.41412127 68.09375 24.0234375 C72.36718538 25.556159 76.61806857 27.13092589 80.83984375 28.80078125 C88.72483208 31.91831712 96.53900849 34.89283733 104.70703125 37.2109375 C108.11618594 38.29671416 111.31721346 39.71465105 114.6015625 41.1328125 C117.25233933 42.13733169 119.92462269 43.0755805 122.6015625 44.0078125 C123.33487793 44.2653833 124.06819336 44.5229541 124.82373047 44.78833008 C130.93461344 46.92497027 137.07613724 48.96143304 143.234375 50.95703125 C146.76939599 52.19141793 150.16102442 53.65829618 153.6015625 55.1328125 C155.15431477 55.62315532 156.71653099 56.0851775 158.2890625 56.5078125 C162.19393326 57.63364777 165.86654204 59.0314045 169.6015625 60.6328125 C174.02606558 62.52821983 178.40057859 64.04226201 183.0300293 65.34204102 C185.50661849 66.10361629 187.84701322 67.00531601 190.23828125 68 C195.51663728 70.13957048 200.87216438 71.94220729 206.2890625 73.6953125 C216.24755981 76.91949217 216.24755981 76.91949217 220.4453125 78.7578125 C223.10545724 79.91668743 225.62441674 80.80517968 228.4140625 81.5703125 C231.79706553 82.55067224 235.03460635 83.66170024 238.2890625 85.0078125 C242.45836571 86.72920456 246.68801005 88.18007342 250.9765625 89.5703125 C256.73091235 91.43978996 262.27971093 93.62377345 267.8359375 96.015625 C270.4259022 97.06185368 272.97631004 97.88057989 275.6640625 98.6328125 C281.80773991 100.37534661 289.02028017 102.55153017 293.6015625 107.1328125 C294.16733413 113.35630043 294.16733413 113.35630043 292.4375 115.73046875 C290.05430174 117.55082657 287.77788674 118.25276408 284.9140625 119.1328125 C283.84027344 119.473125 282.76648438 119.8134375 281.66015625 120.1640625 C280.65082031 120.48375 279.64148438 120.8034375 278.6015625 121.1328125 C275.14593307 122.35172941 271.73300837 123.66415468 268.34765625 125.06640625 C262.53224989 127.46537806 256.66578954 129.38917418 250.640625 131.1953125 C246.88808866 132.35290726 243.2681108 133.72730232 239.6015625 135.1328125 C235.1465625 136.6178125 235.1465625 136.6178125 230.6015625 138.1328125 C230.2715625 168.1628125 229.9415625 198.1928125 229.6015625 229.1328125 C232.0765625 230.1228125 232.0765625 230.1228125 234.6015625 231.1328125 C236.55078125 232.5 236.55078125 232.5 238.2890625 234.0078125 C238.87042969 234.50023437 239.45179688 234.99265625 240.05078125 235.5 C244.49464708 240.17893178 244.12953765 245.38393121 244.05859375 251.5625 C243.39437116 256.75138418 241.3277023 260.47920097 237.6015625 264.1328125 C236.6115625 264.4628125 235.6215625 264.7928125 234.6015625 265.1328125 C235.57151635 270.56042661 236.55875432 275.98093043 237.6640625 281.3828125 C238.26269324 284.31516775 238.77724746 287.22771588 239.1640625 290.1953125 C239.28627791 293.01593709 239.28627791 293.01593709 240.6015625 294.1328125 C241.1258388 296.56845041 241.60000369 298.99406363 242.0390625 301.4453125 C242.17030518 302.1657373 242.30154785 302.88616211 242.43676758 303.62841797 C242.82937339 305.79579416 243.2156342 307.96423896 243.6015625 310.1328125 C243.91867187 311.87498047 243.91867187 311.87498047 244.2421875 313.65234375 C244.42265625 314.67714844 244.603125 315.70195312 244.7890625 316.7578125 C245.02689453 318.10746094 245.02689453 318.10746094 245.26953125 319.484375 C246.23985185 327.22410875 246.23985185 327.22410875 244.09057617 330.28393555 C240.66027417 332.83201569 237.58518652 332.69010004 233.4765625 332.62890625 C232.3006958 332.6310891 232.3006958 332.6310891 231.10107422 332.63331604 C229.44690222 332.63165915 227.79271448 332.62012122 226.13867188 332.59936523 C223.61000944 332.57040923 221.08344445 332.57875951 218.5546875 332.59179688 C216.94530233 332.58555903 215.33592377 332.57716772 213.7265625 332.56640625 C212.9722998 332.56934189 212.21803711 332.57227753 211.44091797 332.57530212 C208.22682178 332.51768208 205.95161968 332.32862821 203.12036133 330.74487305 C201.6015625 329.1328125 201.6015625 329.1328125 201.17578125 326.90625 C201.21316406 326.11476563 201.25054688 325.32328125 201.2890625 324.5078125 C201.31355469 323.71117187 201.33804688 322.91453125 201.36328125 322.09375 C201.6015625 320.1328125 201.6015625 320.1328125 202.6015625 319.1328125 C203.08319458 316.51815663 203.51104525 313.91324224 203.90625 311.28515625 C204.09321945 310.07902428 204.09321945 310.07902428 204.28396606 308.848526 C204.68538086 306.25636941 205.08139806 303.66342874 205.4765625 301.0703125 C207.3159679 289.04741548 209.27115098 277.07122542 211.6015625 265.1328125 C210.98539063 264.84792969 210.36921875 264.56304687 209.734375 264.26953125 C205.665054 262.10071731 203.9216153 258.99695507 202.3515625 254.7578125 C201.19271026 249.15669335 200.84944514 244.28676968 203.34765625 238.9765625 C206.02181422 235.04446729 209.71782513 231.8415786 213.6015625 229.1328125 C214.5915625 229.1328125 215.5815625 229.1328125 216.6015625 229.1328125 C216.6015625 201.0828125 216.6015625 173.0328125 216.6015625 144.1328125 C214.9515625 144.7928125 213.3015625 145.4528125 211.6015625 146.1328125 C208.75465174 146.86568062 205.89546589 147.51198982 203.02734375 148.15625 C199.3346446 149.20890084 195.89673822 150.60027571 192.34741211 152.05371094 C187.54653126 153.9404268 182.63223187 155.48126742 177.7265625 157.0703125 C170.22095287 159.52721569 162.87075649 162.05084692 155.67578125 165.3203125 C153.6015625 166.1328125 153.6015625 166.1328125 150.6015625 166.1328125 C150.60600372 167.30282806 150.61044495 168.47284363 150.61502075 169.67831421 C150.65595731 180.82504046 150.68573119 191.97175102 150.70518684 203.118536 C150.71552609 208.84614626 150.72949969 214.57369478 150.75244141 220.30126953 C150.87182869 250.93689425 150.42979165 280.81153342 145.6015625 311.1328125 C146.35179687 311.40480469 147.10203125 311.67679687 147.875 311.95703125 C153.48808888 314.37757531 157.9731368 318.59928471 160.6015625 324.1328125 C162.31525925 328.55511536 162.85804437 332.230337 162.8671875 336.96484375 C162.86976563 338.25841797 162.87234375 339.55199219 162.875 340.88476562 C162.87081055 341.55258057 162.86662109 342.22039551 162.86230469 342.90844727 C162.85164585 344.92950848 162.86220086 346.94967012 162.875 348.97070312 C162.8609513 356.04070949 162.39836473 362.30078543 160.6015625 369.1328125 C160.45123432 370.63048618 160.32382634 372.13075899 160.2265625 373.6328125 C159.69594676 378.70410722 157.86797555 382.60651786 155.6015625 387.1328125 C155.01285793 388.3782148 154.42574991 389.62437248 153.83984375 390.87109375 C147.72218922 403.71647788 141.17803053 413.54729067 129.6015625 422.1328125 C126.80752699 424.92684801 126.45852052 428.14701115 125.6015625 431.8828125 C124.46708212 436.72208038 123.25573402 441.43614692 121.6015625 446.1328125 C120.9415625 446.1328125 120.2815625 446.1328125 119.6015625 446.1328125 C119.51519531 446.71546875 119.42882812 447.298125 119.33984375 447.8984375 C115.74495825 468.87409967 102.45331129 490.05564477 89.7578125 506.84765625 C85.69830248 514.87067437 86.22909818 524.12106839 86.23095703 532.88647461 C86.22661709 535.16663267 86.19030366 537.4447964 86.15234375 539.72460938 C86.01608694 557.46378292 89.93922689 573.83749646 102.3984375 587.12890625 C107.66702471 591.92107866 113.7203698 595.01551559 120.41796875 597.29296875 C123.1931398 598.36034223 125.77216336 599.70686133 128.4140625 601.0703125 C132.21673514 603.01210279 135.93714451 604.69012845 139.9765625 606.0703125 C145.00007911 607.80505205 149.62752875 610.07730872 154.35253906 612.50024414 C158.86752775 614.8024474 163.4407994 616.78631627 168.13671875 618.68359375 C172.69168638 620.58877187 177.1720985 622.64689756 181.6640625 624.6953125 C186.88039334 627.06986782 192.04861464 629.40024812 197.4765625 631.2578125 C202.31601062 632.9164027 206.79060249 635.15918413 211.33032227 637.48999023 C216.08861109 639.91974084 220.92798287 642.01330389 225.875 644.0234375 C233.23086759 647.0163693 240.40488788 650.4256918 247.609375 653.76171875 C249.76052602 654.74742895 251.92664795 655.70070627 254.1015625 656.6328125 C258.55176965 658.54004414 262.93199641 660.58777199 267.3203125 662.6328125 C269.47294887 663.61687484 271.63828817 664.57370434 273.81640625 665.5 C291.29981201 672.94940914 308.51917383 680.86551375 322.41796875 694.08984375 C324.57901979 696.18503427 324.57901979 696.18503427 327.0703125 697.98828125 C330.0810348 700.53903209 332.2926087 703.42258736 334.5390625 706.6328125 C334.97436279 707.2530127 335.40966309 707.87321289 335.8581543 708.51220703 C344.42873867 720.97069263 349.52022728 734.82461956 352.14453125 749.6875 C352.66513566 752.47295605 353.35345874 755.19586561 354.0390625 757.9453125 C355.39463068 763.70647728 356.25509987 769.46153022 357.0390625 775.3203125 C357.9356358 782.01389135 359.04252763 788.56159469 360.6015625 795.1328125 C362.37289835 802.60702667 363.56720908 810.08799217 364.5625 817.703125 C365.33547311 823.57403977 366.37262891 829.34066301 367.6015625 835.1328125 C367.79830566 836.06029297 367.99504883 836.98777344 368.19775391 837.94335938 C368.61599236 839.90760399 369.03486583 841.87171349 369.4543457 843.83569336 C373.61181325 863.40919483 373.61181325 863.40919483 374.6015625 873.1328125 C374.69695313 873.97714844 374.79234375 874.82148437 374.890625 875.69140625 C375.27418017 881.67688559 373.37754169 885.54569704 369.6015625 890.1328125 C368.99812244 890.98458903 368.39468238 891.83636556 367.77295625 892.7139535 C362.89243154 896.43638662 358.25829938 895.81815388 352.27723122 895.75643158 C350.36977019 895.7664336 350.36977019 895.7664336 348.4237746 895.77663767 C344.880375 895.794503 341.33766844 895.7810929 337.7942965 895.76274755 C333.94462385 895.74829685 330.09504443 895.76278097 326.24537504 895.77363253 C319.493782 895.78863756 312.74239686 895.78498087 305.99080849 895.76921463 C295.95106965 895.74583426 285.91148804 895.75098375 275.87173523 895.76192353 C257.94256681 895.78053325 240.01349757 895.77077819 222.08433722 895.74944589 C206.39323696 895.73090784 190.70217004 895.72246563 175.01105881 895.72401428 C173.97127195 895.72410596 172.93148509 895.72419763 171.86018953 895.72429209 C167.63960735 895.72468523 163.41902518 895.72513485 159.19844301 895.72566348 C119.583013 895.73053768 79.96764217 895.70785218 40.35223056 895.67170725 C5.14040708 895.63971725 -30.07136583 895.62766268 -65.28320312 895.63378906 C-67.54377104 895.63417591 -69.80433896 895.63456236 -72.06490688 895.63494843 C-73.74126202 895.63523545 -73.74126202 895.63523545 -75.45148291 895.63552827 C-81.07694062 895.63648258 -86.70239834 895.63739695 -92.32785606 895.63826752 C-93.43762177 895.63844131 -94.54738748 895.6386151 -95.69078245 895.63879417 C-125.09366487 895.64314768 -154.49654183 895.63313848 -183.89942038 895.61842966 C-184.94515676 895.61790952 -185.99089315 895.61738938 -187.06831851 895.61685347 C-188.11216891 895.61633413 -189.1560193 895.61581479 -190.23150153 895.6152797 C-191.27346614 895.61476196 -192.31543076 895.61424422 -193.38897006 895.61371079 C-195.48743591 895.6126627 -197.58590174 895.61160249 -199.68436757 895.61053007 C-214.32612241 895.60314352 -228.96786951 895.60106236 -243.60962598 895.60252408 C-262.47810743 895.60436835 -281.34654121 895.59632846 -300.21500705 895.57088262 C-310.19828551 895.55770008 -320.18148784 895.55271692 -330.16477314 895.55952116 C-336.82811751 895.56322484 -343.49139224 895.55605723 -350.154718 895.53992877 C-353.9547217 895.53102994 -357.75456846 895.52689125 -361.55457561 895.53585595 C-365.64399992 895.54538022 -369.73301968 895.53183522 -373.82242393 895.51592255 C-375.00746903 895.52237435 -376.19251412 895.52882615 -377.41346967 895.53547347 C-384.33420115 895.48457722 -390.22071926 895.32952109 -395.359375 890.16015625 C-395.82601562 889.47050781 -396.29265625 888.78085938 -396.7734375 888.0703125 C-397.25554687 887.37808594 -397.73765625 886.68585937 -398.234375 885.97265625 C-400.81952377 881.88673319 -400.41185245 878.45268478 -400.1484375 873.7578125 C-400.10251465 872.93780762 -400.0565918 872.11780273 -400.00927734 871.27294922 C-399.64271451 865.77234404 -398.73914266 860.75583198 -397.21875 855.44921875 C-396.1350359 851.06791744 -395.52567847 846.66156549 -394.8984375 842.1953125 C-393.96502722 835.62332985 -392.81995458 829.22569628 -391.22265625 822.77734375 C-389.85188687 816.71607441 -388.82022243 810.59080958 -387.75610352 804.46923828 C-387.59424561 803.54997559 -387.4323877 802.63071289 -387.265625 801.68359375 C-387.12237793 800.85512939 -386.97913086 800.02666504 -386.83154297 799.1730957 C-386.3984375 797.1328125 -386.3984375 797.1328125 -385.3984375 795.1328125 C-385.15722336 793.02649619 -384.92029618 790.91962108 -384.70214844 788.81079102 C-383.43988749 777.16125887 -381.24138369 765.76859431 -378.72753906 754.33380127 C-378.34681748 752.59916664 -377.97165032 750.86330189 -377.60253906 749.12615967 C-371.59178211 720.99964856 -358.19639889 698.58818456 -334.0390625 682.4140625 C-328.63096434 678.94688988 -322.95837166 676.13081917 -317.14648438 673.41992188 C-314.37994468 672.12415097 -311.62369886 670.8077199 -308.86853027 669.48797607 C-306.15088102 668.18836307 -303.4292353 666.89728592 -300.70654297 665.60827637 C-299.33938174 664.96029384 -297.973161 664.31032313 -296.60791016 663.6583252 C-294.67187483 662.73574606 -292.73123469 661.82363771 -290.7890625 660.9140625 C-289.65500977 660.37845703 -288.52095703 659.84285156 -287.35253906 659.29101562 C-284.3984375 658.1328125 -284.3984375 658.1328125 -280.3984375 658.1328125 C-280.3984375 657.4728125 -280.3984375 656.8128125 -280.3984375 656.1328125 C-278.81875943 655.45753027 -277.23451847 654.79291556 -275.6484375 654.1328125 C-274.76671875 653.7615625 -273.885 653.3903125 -272.9765625 653.0078125 C-270.3984375 652.1328125 -270.3984375 652.1328125 -266.3984375 652.1328125 C-266.3984375 651.4728125 -266.3984375 650.8128125 -266.3984375 650.1328125 C-263.86039292 648.97833379 -261.31850121 647.83412823 -258.7734375 646.6953125 C-258.06058594 646.36982422 -257.34773437 646.04433594 -256.61328125 645.70898438 C-252.53671964 643.89510146 -248.88057243 642.63475506 -244.3984375 642.1328125 C-244.3984375 641.4728125 -244.3984375 640.8128125 -244.3984375 640.1328125 C-242.1521139 639.12376875 -239.90199813 638.1254523 -237.6484375 637.1328125 C-237.01421875 636.84664062 -236.38 636.56046875 -235.7265625 636.265625 C-232.31426646 634.77274548 -230.19061833 634.1328125 -226.3984375 634.1328125 C-226.3984375 633.4728125 -226.3984375 632.8128125 -226.3984375 632.1328125 C-225.30144531 631.73449219 -224.20445312 631.33617187 -223.07421875 630.92578125 C-221.61969368 630.39089138 -220.16527202 629.85572025 -218.7109375 629.3203125 C-217.98970703 629.05927734 -217.26847656 628.79824219 -216.52539062 628.52929688 C-212.52494957 627.04968169 -209.05188648 625.35665101 -205.3984375 623.1328125 C-203.1953125 622.47265625 -203.1953125 622.47265625 -201.1484375 622.0703125 C-199.9109375 621.7609375 -198.6734375 621.4515625 -197.3984375 621.1328125 C-197.0684375 620.4728125 -196.7384375 619.8128125 -196.3984375 619.1328125 C-194.6353395 618.22058486 -192.82937012 617.39061362 -191.0078125 616.6015625 C-189.35458984 615.88033203 -189.35458984 615.88033203 -187.66796875 615.14453125 C-186.50652344 614.64566406 -185.34507812 614.14679687 -184.1484375 613.6328125 C-183.00246094 613.13394531 -181.85648438 612.63507812 -180.67578125 612.12109375 C-175.93862086 610.06409628 -171.19458924 608.04810742 -166.3984375 606.1328125 C-164.62365056 605.32898523 -162.85291982 604.51615378 -161.0859375 603.6953125 C-148.94435086 598.15561146 -148.94435086 598.15561146 -142.3984375 597.1328125 C-142.3984375 596.4728125 -142.3984375 595.8128125 -142.3984375 595.1328125 C-141.78097656 594.8646875 -141.16351563 594.5965625 -140.52734375 594.3203125 C-127.84208333 588.45072472 -120.10909206 579.89560823 -115.30615234 566.86572266 C-112.11927652 557.27080927 -112.05506804 547.52551553 -112.08276367 537.52636719 C-112.08593207 535.13690864 -112.06235544 532.74868224 -112.03710938 530.359375 C-111.97664349 517.15336891 -113.6977617 507.48739916 -121.5859375 496.5703125 C-122.68728953 495.00911107 -123.78514205 493.445433 -124.87890625 491.87890625 C-125.36254639 491.20529053 -125.84618652 490.5316748 -126.34448242 489.83764648 C-127.3984375 488.1328125 -127.3984375 488.1328125 -127.3984375 486.1328125 C-128.0584375 486.1328125 -128.7184375 486.1328125 -129.3984375 486.1328125 C-130.73675919 483.13497191 -132.06869123 480.13446196 -133.3984375 477.1328125 C-133.79240723 476.24819336 -133.79240723 476.24819336 -134.19433594 475.34570312 C-140.44645876 461.2945405 -146.2865195 447.2017855 -150.13671875 432.26953125 C-151.82014159 425.92142837 -153.92350351 422.84736706 -159.18359375 418.73828125 C-176.07481125 404.93651108 -183.05477972 383.44818315 -187.0546875 362.734375 C-187.56117389 357.427779 -187.58278306 352.14815393 -187.5859375 346.8203125 C-187.59818359 345.74330078 -187.61042969 344.66628906 -187.62304688 343.55664062 C-187.64399613 332.02756915 -186.69245593 323.59926374 -178.3984375 315.1328125 C-173.64372052 311.1328125 -173.64372052 311.1328125 -170.3984375 311.1328125 C-170.53881271 309.31988161 -170.68588639 307.5074682 -170.8359375 305.6953125 C-170.91714844 304.68597656 -170.99835938 303.67664063 -171.08203125 302.63671875 C-171.13055218 300.19640471 -171.13055218 300.19640471 -172.3984375 299.1328125 C-172.63886268 296.03018277 -172.79117223 292.9350769 -172.91601562 289.82617188 C-173.11413964 285.88985884 -173.58834794 282.20689525 -174.40991211 278.35180664 C-176.15533185 268.00453879 -175.64303993 257.45080577 -175.59375 246.9921875 C-175.59001434 244.65521364 -175.58716998 242.3182382 -175.58517456 239.98126221 C-175.57758164 233.86573879 -175.55797091 227.75031215 -175.5357666 221.63482666 C-175.51521413 215.38026234 -175.50615283 209.12568219 -175.49609375 202.87109375 C-175.47472054 190.62495775 -175.44063765 178.37889321 -175.3984375 166.1328125 C-177.28393311 165.66657471 -177.28393311 165.66657471 -179.20751953 165.19091797 C-186.43482419 163.40377905 -193.45714691 160.97380894 -200.3359375 158.1328125 C-205.27537758 156.1012686 -210.32816767 154.59621104 -215.44140625 153.06640625 C-218.87305949 151.98296487 -222.09190679 150.54989709 -225.3984375 149.1328125 C-227.45619579 148.49237352 -229.51936839 147.86922348 -231.5859375 147.2578125 C-235.81528193 145.9885302 -239.85222815 144.58582588 -243.8984375 142.8203125 C-250.35075854 140.03290981 -256.97839404 137.87462194 -263.66210938 135.71948242 C-268.85732265 134.03201834 -273.91669591 132.15263264 -278.97412109 130.09008789 C-282.7298346 128.60709165 -286.55664944 127.3712975 -290.3984375 126.1328125 C-312.59224246 118.84210506 -312.59224246 118.84210506 -316.3984375 113.1328125 C-316.7734375 110.6953125 -316.7734375 110.6953125 -316.3984375 108.1328125 C-313.06912446 103.7083307 -308.85440007 102.66507529 -303.7734375 101.1328125 C-302.14900416 100.61950909 -300.52529809 100.10389818 -298.90234375 99.5859375 C-298.12391113 99.33908203 -297.34547852 99.09222656 -296.54345703 98.83789062 C-293.16739695 97.72816362 -289.90031482 96.39350559 -286.63671875 94.9921875 C-284.3984375 94.1328125 -284.3984375 94.1328125 -281.046875 93.19140625 C-277.47120535 92.15392608 -274.14653728 90.87518014 -270.7109375 89.4453125 C-259.41866554 84.83084815 -247.86304965 80.90851678 -236.27099609 77.11987305 C-231.34427561 75.5095356 -226.52942746 73.82097434 -221.7734375 71.7578125 C-215.30385729 68.97254363 -208.65007029 66.81166635 -201.95849609 64.63134766 C-196.71819484 62.92253243 -191.54235789 61.11225852 -186.3984375 59.1328125 C-185.1122256 58.64388248 -183.82576628 58.15560283 -182.5390625 57.66796875 C-181.90452148 57.42747803 -181.26998047 57.1869873 -180.61621094 56.93920898 C-175.15730333 54.87552518 -169.70233557 52.86802161 -164.1484375 51.0703125 C-160.32354775 49.824287 -156.65004682 48.4229157 -152.9609375 46.8203125 C-146.54321332 44.07227514 -139.95664373 41.92734927 -133.31079102 39.80737305 C-128.63655371 38.29549874 -124.10508688 36.62527266 -119.5859375 34.6953125 C-112.03488754 31.48963233 -104.26749022 29.0394586 -96.46484375 26.52734375 C-89.89563081 24.38275533 -83.53048549 21.99773074 -77.17578125 19.28417969 C-73.23039963 17.64859427 -69.21448804 16.30749651 -65.1484375 15.0078125 C-60.81595571 13.60657276 -56.50786457 12.19553422 -52.2578125 10.55859375 C-48.85355976 9.26285741 -45.44510169 8.29167554 -41.8984375 7.4453125 C-40.856875 7.19394531 -39.8153125 6.94257813 -38.7421875 6.68359375 C-37.96875 6.50183594 -37.1953125 6.32007813 -36.3984375 6.1328125 C-36.3984375 5.4728125 -36.3984375 4.8128125 -36.3984375 4.1328125 C-35.78097656 3.96265625 -35.16351562 3.7925 -34.52734375 3.6171875 C-30.11066337 2.35335811 -26.0079832 1.01111275 -21.8984375 -1.0546875 C-14.15638345 -4.57875077 -7.55509367 -3.34482475 0 0 Z " fill="#FCFBFB" transform="translate(643.3984375,165.8671875)"/>
<path d="M0 0 C0.71961411 0.21918594 1.43922821 0.43837189 2.1806488 0.66419983 C11.66361385 3.60513894 20.99299693 7.00078652 30.328125 10.375 C32.13852184 11.02450688 33.94906833 11.67359681 35.75976562 12.32226562 C45.17473773 15.7016475 54.5633829 19.14446448 63.921875 22.67724609 C70.00280743 24.96913958 76.08836971 27.22713441 82.265625 29.24609375 C88.34925327 31.26474364 94.3292154 33.55728348 100.328125 35.8125 C109.17451083 39.11937038 118.01586091 42.21603948 127.05859375 44.93359375 C130.61742742 46.04762573 134.00870627 47.40112894 137.4453125 48.83984375 C142.0625849 50.63687082 146.78063487 52.13682932 151.49560547 53.65600586 C155.44557963 54.94252144 159.31288121 56.33322488 163.16015625 57.90234375 C168.35034153 60.01233015 173.62451333 61.7754675 178.953125 63.5 C184.8608928 65.41270874 190.5593274 67.47608788 196.265625 69.9375 C199.22641935 70.99455704 202.21254575 71.9684009 205.203125 72.9375 C210.27513957 74.58945385 215.30369866 76.29853753 220.28930664 78.19628906 C222.97747308 79.20447601 225.68881883 80.14038194 228.40161133 81.07983398 C234.03052651 83.03067986 239.60438881 85.0157652 245.078125 87.375 C254.50994127 91.40250135 264.29436292 94.55594322 273.99414062 97.86962891 C275.79955688 98.48664124 277.60425587 99.10575667 279.40820312 99.72705078 C281.09271465 100.30716627 282.7788172 100.88269139 284.46679688 101.45263672 C294.08740527 104.77098562 303.39212999 108.5120895 308.30078125 117.984375 C310.6975276 125.32016544 310.92808471 133.90653595 307.96875 141.08203125 C301.78348121 150.54435759 293.32755791 153.5083054 282.94921875 156.7265625 C279.27783377 157.93348651 275.81471829 159.4135727 272.265625 160.9375 C270.17142651 161.61495904 268.06698532 162.26163829 265.953125 162.875 C260.97122345 164.35982451 256.23193344 166.08948597 251.484375 168.203125 C248.96628902 169.03657599 246.90179086 168.98874061 244.265625 168.9375 C244.25731703 177.71760432 244.28117525 186.49686443 244.3459034 195.27673626 C244.3749546 199.35383528 244.39299646 203.43035946 244.38574219 207.50756836 C244.37914617 211.44374822 244.40164712 215.37879247 244.44417953 219.31473732 C244.45530628 220.8149594 244.4560146 222.31529672 244.44604874 223.81552696 C244.06040414 231.72566911 244.06040414 231.72566911 246.5904541 238.9103241 C248.34614927 240.44702028 248.34614927 240.44702028 251.265625 241.9375 C253.09375 244.40234375 253.09375 244.40234375 254.515625 246.875 C254.99515625 247.68839844 255.4746875 248.50179687 255.96875 249.33984375 C258.75397006 254.91867309 259.65386889 259.92197808 259.640625 266.125 C259.63973877 266.87096436 259.63885254 267.61692871 259.63793945 268.38549805 C259.49264833 275.22155625 258.44679693 282.58081513 253.56640625 287.73046875 C251.56464921 291.12684331 252.53389767 294.25438501 253.265625 297.9375 C253.46800781 299.03707031 253.67039062 300.13664062 253.87890625 301.26953125 C254.10964844 302.41808594 254.34039063 303.56664062 254.578125 304.75 C256.05113596 312.38800892 257.27767076 320.0611156 258.453125 327.75 C258.63206299 328.88219971 258.81100098 330.01439941 258.99536133 331.1809082 C261.96605129 350.98792193 261.96605129 350.98792193 255.96875 359.84375 C251.62389303 365.1851338 244.91307653 368.32793127 238.11062622 369.22015381 C235.82507645 369.33026472 233.55764061 369.35367079 231.26953125 369.3359375 C230.43655014 369.33880768 229.60356903 369.34167786 228.74534607 369.34463501 C226.9948559 369.3466639 225.24434245 369.34121688 223.49389648 369.32861328 C220.83850544 369.31256274 218.18464088 369.32849119 215.52929688 369.34765625 C213.81770502 369.34567321 212.10611411 369.34182828 210.39453125 369.3359375 C209.22223717 369.34504654 209.22223717 369.34504654 208.02626038 369.3543396 C199.49541508 369.24739153 192.29086117 367.10285794 186.265625 360.9375 C179.81689384 351.92581158 180.83642272 342.65649157 182.53588867 332.25585938 C182.71482666 331.20205078 182.89376465 330.14824219 183.078125 329.0625 C183.34943237 327.4237793 183.34943237 327.4237793 183.6262207 325.75195312 C183.99337981 323.53766141 184.3630652 321.32378701 184.73535156 319.11035156 C185.22386658 316.18735837 185.69762803 313.26252296 186.1640625 310.3359375 C186.42694972 308.70310348 186.6899617 307.07028954 186.953125 305.4375 C187.07212158 304.68484863 187.19111816 303.93219727 187.3137207 303.15673828 C188.15172045 298.05140455 188.15172045 298.05140455 189.265625 296.9375 C189.63323231 294.60932036 189.96804081 292.2756615 190.265625 289.9375 C189.605625 289.9375 188.945625 289.9375 188.265625 289.9375 C187.63253309 288.75429424 187.00965782 287.56562152 186.390625 286.375 C186.04257812 285.71371094 185.69453125 285.05242187 185.3359375 284.37109375 C181.16464936 274.88674153 180.2582376 262.40995005 183.703125 252.5 C186.38879513 246.86687963 190.66923626 242.10796855 195.265625 237.9375 C195.925625 237.9375 196.585625 237.9375 197.265625 237.9375 C197.265625 221.1075 197.265625 204.2775 197.265625 186.9375 C186.32473154 190.80260213 186.32473154 190.80260213 175.64453125 195.140625 C172.56190586 196.17322858 169.48157437 196.50548932 166.265625 196.9375 C166.26784561 198.05677383 166.27006622 199.17604767 166.27235413 200.32923889 C166.29272411 210.93490514 166.30766342 221.54056736 166.31743717 232.14624882 C166.32263103 237.59726344 166.32966433 243.04826212 166.34106445 248.49926758 C166.35201866 253.7707122 166.3579281 259.04214159 166.36050224 264.31359673 C166.3623341 266.313575 166.36591065 268.31355254 166.37135506 270.31352425 C166.40912811 284.77921254 166.40432558 299.09054953 163.66796875 313.3515625 C163.25218338 316.02389176 162.94484387 318.2455394 163.265625 320.9375 C164.82379827 323.13145435 164.82379827 323.13145435 166.953125 325.125 C177.35744542 336.26590948 178.64302127 348.96724213 178.515625 363.6875 C178.50813232 364.83275146 178.50063965 365.97800293 178.49291992 367.15795898 C178.11813334 396.72422372 168.81731565 426.87801762 147.265625 447.9375 C142.62941519 451.9375 142.62941519 451.9375 140.265625 451.9375 C140.19730469 452.95328125 140.12898437 453.9690625 140.05859375 455.015625 C139.28849925 461.12799814 137.20979509 466.88700885 135.24731445 472.69921875 C134.58554968 474.66543995 133.94147958 476.63683652 133.29882812 478.609375 C130.90545115 485.83530133 128.12416387 492.68053271 124.57446289 499.43359375 C122.95164477 502.53816802 121.59129209 505.69698045 120.265625 508.9375 C119.605625 508.9375 118.945625 508.9375 118.265625 508.9375 C118.03617188 509.59878906 117.80671875 510.26007812 117.5703125 510.94140625 C115.8731405 514.83880422 113.6705709 518.29555141 111.390625 521.875 C110.95621094 522.56529297 110.52179687 523.25558594 110.07421875 523.96679688 C108.18348186 526.96188309 106.32239863 529.86488499 104.13769531 532.65917969 C101.86756657 536.63456945 101.71944848 539.85153725 101.8046875 544.30078125 C101.80560394 545.09220016 101.80652039 545.88361908 101.8074646 546.69902039 C101.81348293 548.36736067 101.82917568 550.03569104 101.85400391 551.70385742 C101.89036643 554.23202235 101.89502368 556.7587108 101.89453125 559.28710938 C101.90437021 560.9166791 101.91603059 562.54623905 101.9296875 564.17578125 C101.93302597 565.29186516 101.93302597 565.29186516 101.93643188 566.43049622 C102.11629639 576.59000165 104.41513748 584.24928028 111.265625 591.9375 C113.76743792 594.0145745 116.3616049 595.49071301 119.265625 596.9375 C120.08546875 597.36675781 120.9053125 597.79601562 121.75 598.23828125 C125.79879329 600.31788871 129.88677477 602.21626477 134.07641602 603.99560547 C139.14109383 606.17465387 144.1670337 608.44339711 149.203125 610.6875 C165.76005142 618.06511757 165.76005142 618.06511757 182.39208984 625.27124023 C186.76886724 627.14630973 191.12253588 629.07281921 195.4765625 631 C196.3533667 631.38767548 197.2301709 631.77535095 198.13354492 632.17477417 C200.96938978 633.42867384 203.8050093 634.6830822 206.640625 635.9375 C210.55716604 637.66955504 214.4738492 639.40128839 218.390625 641.1328125 C219.34722015 641.55571564 220.30381531 641.97861877 221.28939819 642.41433716 C228.4017891 645.55779335 235.51983554 648.68811484 242.640625 651.8125 C252.7130393 656.23595789 262.7590064 660.71788249 272.79077148 665.23266602 C278.2035385 667.66861176 283.61768012 670.09904048 289.0546875 672.48046875 C320.41698132 686.26003546 347.28177369 706.08940965 360.265625 738.9375 C364.25413706 750.29378902 367.67517964 761.93149957 368.87890625 773.9375 C369.26380698 776.92339658 369.9570108 779.74289453 370.71508789 782.65283203 C371.80677327 787.18320533 372.54147827 791.78373485 373.328125 796.375 C373.50150391 797.36048828 373.67488281 798.34597656 373.85351562 799.36132812 C374.62741999 803.83574069 375.33697177 808.2867872 375.80078125 812.8046875 C376.14847651 816.17804726 376.76925052 819.34094887 377.640625 822.625 C379.37402727 829.761544 380.29448843 836.96067723 381.17529297 844.24682617 C381.2888916 845.15408447 381.40249023 846.06134277 381.51953125 846.99609375 C381.66370483 848.20736938 381.66370483 848.20736938 381.81079102 849.44311523 C382.34864675 852.39280501 383.31253871 855.09602009 384.265625 857.9375 C393.90076807 900.65787277 393.90076807 900.65787277 385.02734375 915.48828125 C379.29201936 923.46178101 372.59560613 927.82750629 363.265625 930.9375 C361.53003368 931.03093295 359.79103487 931.0656745 358.05293137 931.06745183 C356.41978537 931.07274446 356.41978537 931.07274446 354.75364652 931.07814401 C353.55046823 931.07694624 352.34728995 931.07574846 351.10765171 931.07451439 C349.82968646 931.07716622 348.5517212 931.07981804 347.23502973 931.08255023 C343.66476926 931.08980323 340.09452979 931.0907795 336.52426295 931.090773 C332.64864755 931.09184031 328.77304156 931.0986283 324.89743131 931.1046797 C317.20015176 931.1157675 309.50287677 931.12140697 301.80559063 931.12538858 C292.5898692 931.13039286 283.37415665 931.14111967 274.15844045 931.15187032 C251.8800365 931.17751632 229.6016291 931.19253917 207.32321463 931.20538078 C199.94505767 931.2096342 192.56690096 931.2141999 185.18874431 931.2189641 C145.97228037 931.24422383 106.75581603 931.26627554 67.53934574 931.27869225 C58.45062827 931.28161366 49.3619108 931.28458116 40.27319336 931.28759766 C38.57942613 931.28815402 38.57942613 931.28815402 36.85144139 931.28872162 C0.2394746 931.30087757 -36.37244412 931.33182144 -72.98438832 931.37351918 C-110.61289207 931.41629661 -148.24137042 931.442932 -185.86989914 931.44816696 C-191.18356095 931.44890742 -196.49722271 931.44981811 -201.81088448 931.45082474 C-203.37957898 931.45111066 -203.37957898 931.45111066 -204.97996428 931.45140236 C-221.81766473 931.4549174 -238.65530503 931.47522217 -255.49298339 931.50162137 C-272.41581635 931.52775413 -289.33857976 931.53549846 -306.26143002 931.52452008 C-316.31703317 931.51853943 -326.37240052 931.52647519 -336.42796803 931.55435092 C-343.14595297 931.57159703 -349.86377704 931.5706588 -356.5817654 931.55498323 C-360.40901108 931.54656881 -364.23580665 931.54599797 -368.06301069 931.56759469 C-372.1902915 931.59069728 -376.31653183 931.57493364 -380.44383144 931.55553246 C-382.21699313 931.57480629 -382.21699313 931.57480629 -384.02597627 931.59446949 C-394.33752222 931.48783052 -402.8601279 928.72560157 -410.734375 921.9375 C-418.79094282 912.76712096 -421.41444673 903.99633291 -420.734375 891.9375 C-420.03620299 886.07141563 -419.01402689 880.28284172 -417.83056641 874.49731445 C-416.63222414 868.52039494 -415.59380656 862.51935637 -414.5625 856.51171875 C-414.14416489 854.09427038 -413.72553433 851.67687312 -413.30664062 849.25952148 C-413.09048096 848.01081268 -412.87432129 846.76210388 -412.65161133 845.47555542 C-409.52573521 827.43643087 -406.39060335 809.42789252 -402.50976562 791.53393555 C-400.96546852 784.34514194 -399.83652686 777.22732473 -399.15625 769.90625 C-398.73414231 766.93586256 -397.87506486 764.69597434 -396.734375 761.9375 C-396.30845486 759.86010889 -395.91554604 757.77581115 -395.546875 755.6875 C-391.41404166 735.93255664 -381.24102509 718.6955015 -367.734375 703.9375 C-366.69796875 702.79474609 -366.69796875 702.79474609 -365.640625 701.62890625 C-360.56098751 696.28904143 -354.82612488 692.05815105 -348.734375 687.9375 C-347.83847656 687.32390625 -346.94257813 686.7103125 -346.01953125 686.078125 C-329.36040674 675.25528438 -310.5731872 667.69488712 -292.30053711 660.03417969 C-286.46145196 657.58001582 -280.77032806 654.99194046 -275.13305664 652.10620117 C-271.86339856 650.51313723 -268.50759761 649.20004141 -265.12011719 647.88085938 C-261.47611964 646.43996636 -257.9229355 644.81512932 -254.359375 643.1875 C-245.0976012 638.99211392 -235.81767491 634.83815539 -226.5289917 630.70275879 C-224.93039016 629.99070102 -223.33211707 629.27790535 -221.73419189 628.56433105 C-214.15131645 625.17842811 -206.58145939 621.81808849 -198.84521484 618.79418945 C-194.77956241 617.14413458 -190.85885506 615.17914497 -186.9296875 613.23046875 C-183.52620178 611.59254125 -181.59666816 610.9375 -177.734375 610.9375 C-177.734375 610.2775 -177.734375 609.6175 -177.734375 608.9375 C-171.14159317 606.05865193 -164.78435501 603.42884192 -157.734375 601.9375 C-157.734375 601.2775 -157.734375 600.6175 -157.734375 599.9375 C-156.63738281 599.44121094 -155.54039062 598.94492187 -154.41015625 598.43359375 C-152.95526254 597.74838574 -151.5008611 597.06213181 -150.046875 596.375 C-149.32564453 596.05208984 -148.60441406 595.72917969 -147.86132812 595.39648438 C-141.06683375 592.13885008 -137.12315477 587.29335805 -134.359375 580.1640625 C-131.79292321 571.02107799 -131.54686189 561.49552119 -131.484375 552.0625 C-131.47510986 551.19544434 -131.46584473 550.32838867 -131.45629883 549.43505859 C-131.50532576 539.38549869 -133.31189872 532.58120878 -139.359375 524.5 C-140.37619078 523.1082334 -141.38940982 521.71382951 -142.3984375 520.31640625 C-142.84654785 519.7138501 -143.2946582 519.11129395 -143.75634766 518.49047852 C-144.734375 516.9375 -144.734375 516.9375 -144.734375 514.9375 C-145.394375 514.9375 -146.054375 514.9375 -146.734375 514.9375 C-154.20983138 499.45122704 -161.14549961 484.30200979 -166.23706055 467.85180664 C-168.91307581 457.05096739 -168.91307581 457.05096739 -175.359375 448.5625 C-195.42686195 432.2071306 -204.20647368 406.97029699 -207.42578125 381.87109375 C-208.07747524 373.5640577 -207.93433053 365.26107259 -207.734375 356.9375 C-207.71632813 355.679375 -207.69828125 354.42125 -207.6796875 353.125 C-207.22059491 341.89073435 -203.16338458 332.36110376 -195.734375 323.9375 C-195.20480194 323.5313446 -194.67522888 323.12518921 -194.12960815 322.70672607 C-192.06194245 320.08482158 -192.61803536 318.27294871 -192.98095703 315.00878906 C-193.09940979 313.84126099 -193.21786255 312.67373291 -193.33990479 311.4708252 C-193.47007996 310.30482788 -193.60025513 309.13883057 -193.734375 307.9375 C-195.85030999 285.26564668 -195.98226527 262.75350664 -195.8717041 240.00280762 C-195.85085275 235.24147373 -195.84202844 230.48011685 -195.83203125 225.71875 C-195.81089563 216.4582753 -195.77698864 207.19789913 -195.734375 197.9375 C-196.50096436 197.79038574 -197.26755371 197.64327148 -198.05737305 197.49169922 C-200.98228376 196.88617735 -203.71771534 196.01914901 -206.546875 195.0625 C-207.52269531 194.73507812 -208.49851562 194.40765625 -209.50390625 194.0703125 C-214.62755596 192.2736276 -219.69530416 190.33327157 -224.76953125 188.40234375 C-225.43404297 188.15033203 -226.09855469 187.89832031 -226.78320312 187.63867188 C-228.13036293 187.12777034 -229.47671478 186.61473347 -230.82226562 186.09960938 C-235.08150603 184.48945921 -239.33986838 183.13184575 -243.734375 181.9375 C-243.734375 181.2775 -243.734375 180.6175 -243.734375 179.9375 C-244.95125 179.69 -246.168125 179.4425 -247.421875 179.1875 C-254.87442164 177.52745407 -262.44265451 175.50987445 -269.421875 172.375 C-272.12006044 171.20408934 -274.60760794 170.3595788 -277.421875 169.5625 C-281.16654403 168.48157226 -284.69136334 167.1639114 -288.26953125 165.62109375 C-295.64730805 162.50893923 -303.17153565 159.87748736 -310.73046875 157.24414062 C-321.49602967 153.43713108 -329.28955059 150.44137161 -334.76953125 139.95703125 C-337.4304116 133.75656123 -337.17295872 128.00758605 -336.234375 121.4375 C-332.69255294 113.17324853 -326.80641208 108.38392316 -318.734375 104.9375 C-314.63885309 103.33064282 -310.50664389 101.84238094 -306.359375 100.375 C-305.286875 99.98892578 -304.214375 99.60285156 -303.109375 99.20507812 C-297.40754756 97.16920665 -291.69300291 95.30218894 -285.88330078 93.60131836 C-283.1214595 92.74816607 -280.50197006 91.66810361 -277.859375 90.5 C-272.93832191 88.39187623 -267.98291631 86.66141026 -262.88989258 85.02172852 C-259.94054903 84.00834092 -257.11512319 82.86250089 -254.25390625 81.625 C-247.41291664 78.74636053 -240.44744386 76.32285253 -233.421875 73.9375 C-232.13082606 73.49553345 -230.83989266 73.05322927 -229.54907227 72.6105957 C-223.10423179 70.40436009 -216.64692298 68.24080925 -210.171875 66.125 C-205.02997817 64.42876507 -200.09508071 62.44030245 -195.12109375 60.30859375 C-190.07385847 58.26524936 -184.93298415 56.51331892 -179.78686523 54.73706055 C-173.36788963 52.51916299 -166.98432251 50.21620226 -160.609375 47.875 C-153.81157478 45.38104063 -146.99295756 42.99615996 -140.109375 40.75 C-134.2079048 38.82172072 -128.50268072 36.65674648 -122.796875 34.19921875 C-118.60678241 32.47294336 -114.33747298 31.00037057 -110.05737305 29.51733398 C-103.1602141 27.11594556 -96.32445999 24.55874283 -89.484375 22 C-80.14555257 18.50848479 -70.77683379 15.18435775 -61.26855469 12.18188477 C-57.04043857 10.82309308 -53.51122552 9.3221781 -49.734375 6.9375 C-47.48046875 6.12890625 -47.48046875 6.12890625 -45.171875 5.5 C-41.20504158 4.37001747 -37.27698525 3.16651986 -33.359375 1.875 C-32.38226562 1.55402344 -31.40515625 1.23304688 -30.3984375 0.90234375 C-27.79989743 0.04833991 -27.79989743 0.04833991 -25.83203125 -1.15625 C-18.26411672 -4.42581457 -7.57266171 -2.38150434 0 0 Z M-28.94921875 19.69140625 C-32.1759226 21.13505075 -35.31311381 22.0821847 -38.734375 22.9375 C-38.734375 23.5975 -38.734375 24.2575 -38.734375 24.9375 C-39.76175781 25.17984375 -40.78914063 25.4221875 -41.84765625 25.671875 C-49.03593179 27.39800123 -56.05202147 29.22180284 -62.96484375 31.875 C-66.17871314 33.10796541 -69.42263616 34.23865418 -72.671875 35.375 C-77.05349885 36.93069055 -81.34286308 38.59080081 -85.609375 40.4375 C-90.95891271 42.71786594 -96.38738986 44.48813381 -101.95263672 46.15039062 C-109.05469689 48.27902436 -115.8798092 50.98143722 -122.73632812 53.79174805 C-130.48353832 56.9574132 -138.20752981 59.82986375 -146.2277832 62.21875 C-150.07333206 63.37703029 -153.74123458 64.7083845 -157.421875 66.3125 C-163.86632496 69.11366394 -170.49930933 71.26416206 -177.17456055 73.43896484 C-182.41638734 75.14843762 -187.58315534 76.97146947 -192.734375 78.9375 C-194.35840086 79.52353991 -195.98330634 80.10715226 -197.609375 80.6875 C-201.7377421 82.18098081 -205.82919159 83.75175621 -209.91333008 85.36083984 C-223.12396044 90.56169551 -236.50840438 95.22400142 -249.984375 99.6875 C-256.17974997 101.74154599 -262.25258431 103.93173598 -268.30078125 106.3828125 C-269.28401367 106.78028687 -269.28401367 106.78028687 -270.28710938 107.18579102 C-271.59066986 107.7138977 -272.89284877 108.24543255 -274.19335938 108.78100586 C-278.31912423 110.45614882 -282.45514041 111.72212344 -286.734375 112.9375 C-289.85783739 114.0110034 -292.95256165 115.15799761 -296.046875 116.3125 C-296.88412109 116.62413086 -297.72136719 116.93576172 -298.58398438 117.25683594 C-300.23063862 117.87161244 -301.8766604 118.48808626 -303.52197266 119.10644531 C-305.37593563 119.8028578 -307.23257802 120.49213162 -309.08984375 121.1796875 C-310.39888672 121.67855469 -310.39888672 121.67855469 -311.734375 122.1875 C-312.8171875 122.59742188 -312.8171875 122.59742188 -313.921875 123.015625 C-316.01290821 124.07916775 -317.29907809 125.07793294 -318.734375 126.9375 C-318.59124342 131.53355245 -318.59124342 131.53355245 -316.53515625 135.53125 C-314.17391508 137.37516935 -311.9069503 138.05860362 -309.046875 138.9375 C-307.43039062 139.44990234 -307.43039062 139.44990234 -305.78125 139.97265625 C-304.77578125 140.29105469 -303.7703125 140.60945313 -302.734375 140.9375 C-299.15493196 142.20356226 -295.6212516 143.58458609 -292.09375 144.98828125 C-284.22881277 148.08383988 -276.27729657 150.80976328 -268.24536133 153.43847656 C-260.60767713 155.94386134 -253.16431656 158.74433217 -245.734375 161.8125 C-239.01022887 164.54854368 -232.18492866 166.74933027 -225.2421875 168.85546875 C-222.07491655 169.83245545 -219.00643788 170.91203453 -215.92578125 172.125 C-211.44545147 173.78615614 -206.86868675 175.19326777 -202.3203125 176.65625 C-198.95269085 177.85949608 -195.9274193 179.34097785 -192.734375 180.9375 C-190.50034347 181.71421561 -188.24939698 182.44392772 -185.984375 183.125 C-184.29054688 183.64126953 -184.29054688 183.64126953 -182.5625 184.16796875 C-179.90122756 185.02501783 -179.90122756 185.02501783 -177.734375 184.9375 C-177.73881622 186.22630066 -177.74325745 187.51510132 -177.74783325 188.84295654 C-177.78848193 201.02417609 -177.81840854 213.20538177 -177.83799934 225.3866539 C-177.84840993 231.6482604 -177.86251918 237.90981188 -177.88525391 244.17138672 C-177.90707967 250.22088406 -177.9189641 256.27032867 -177.92412949 262.31986237 C-177.92780782 264.62097248 -177.93499043 266.92207991 -177.94583511 269.22316742 C-178.17003797 284.55374816 -178.17003797 284.55374816 -176.20201111 299.70838928 C-175.44481603 303.3177591 -175.31950838 306.94856888 -175.171875 310.625 C-175.36948544 315.14469098 -175.36948544 315.14469098 -173.734375 318.9375 C-173.50073619 320.78641946 -173.32133865 322.64238031 -173.171875 324.5 C-173.08808594 325.51191406 -173.00429688 326.52382813 -172.91796875 327.56640625 C-172.85738281 328.34886719 -172.79679688 329.13132812 -172.734375 329.9375 C-173.4975 330.22367187 -174.260625 330.50984375 -175.046875 330.8046875 C-181.39944521 333.48236971 -186.09733307 338.60229568 -188.734375 344.9375 C-191.48933918 360.49698321 -190.90189639 377.72940784 -186.734375 392.9375 C-186.38989289 394.33445508 -186.04617824 395.73159959 -185.703125 397.12890625 C-181.57528958 413.1694195 -173.49951261 428.7171563 -159.859375 438.6875 C-153.29513876 443.53090347 -152.43083138 450.00255428 -150.6015625 457.57421875 C-147.92294317 467.96291803 -144.16548683 477.56445653 -139.515625 487.1953125 C-136.7112891 493.01615445 -134.23907115 498.98311244 -131.734375 504.9375 C-131.074375 504.9375 -130.414375 504.9375 -129.734375 504.9375 C-129.50621094 505.61554688 -129.27804687 506.29359375 -129.04296875 506.9921875 C-127.10481786 511.35447338 -124.2802879 515.05006795 -121.45507812 518.8828125 C-114.42392507 528.94228632 -114.27319393 539.71390211 -114.39819336 551.54394531 C-114.42183331 553.93328628 -114.41872761 556.32150857 -114.41210938 558.7109375 C-114.44159628 575.47059902 -116.61659145 591.29176323 -128.734375 603.9375 C-133.57611463 608.28339882 -138.85771776 611.209052 -144.734375 613.9375 C-144.734375 614.5975 -144.734375 615.2575 -144.734375 615.9375 C-145.68763672 616.07865234 -145.68763672 616.07865234 -146.66015625 616.22265625 C-150.91011107 617.21089225 -154.86482473 618.78520616 -158.921875 620.375 C-160.15067383 620.84389648 -160.15067383 620.84389648 -161.40429688 621.32226562 C-162.18740234 621.62712891 -162.97050781 621.93199219 -163.77734375 622.24609375 C-164.48914795 622.52251709 -165.20095215 622.79894043 -165.93432617 623.08374023 C-167.92551034 623.90472582 -167.92551034 623.90472582 -169.734375 625.9375 C-171.58845907 626.7183209 -173.46863717 627.43767223 -175.359375 628.125 C-180.79266853 630.16704321 -186.15438684 632.32639005 -191.484375 634.625 C-192.18771973 634.92237061 -192.89106445 635.21974121 -193.61572266 635.52612305 C-197.35043245 636.94619718 -197.35043245 636.94619718 -199.734375 639.9375 C-202.16796875 640.71875 -202.16796875 640.71875 -205.171875 641.4375 C-209.40215325 642.35874104 -209.40215325 642.35874104 -212.734375 644.9375 C-215.4331867 646.03870647 -218.12016331 647.07373447 -220.859375 648.0625 C-221.61347656 648.33964844 -222.36757813 648.61679687 -223.14453125 648.90234375 C-225.00600621 649.58567 -226.86996102 650.26223389 -228.734375 650.9375 C-228.734375 651.5975 -228.734375 652.2575 -228.734375 652.9375 C-229.59289062 653.04964844 -230.45140625 653.16179688 -231.3359375 653.27734375 C-234.8707006 653.96398164 -237.81040624 655.07044687 -241.109375 656.5 C-242.16898438 656.95503906 -243.22859375 657.41007813 -244.3203125 657.87890625 C-245.11695313 658.22824219 -245.91359375 658.57757812 -246.734375 658.9375 C-246.734375 659.5975 -246.734375 660.2575 -246.734375 660.9375 C-247.765625 661.14375 -248.796875 661.35 -249.859375 661.5625 C-256.43449649 663.17660925 -262.57196312 666.18518683 -268.734375 668.9375 C-268.734375 669.5975 -268.734375 670.2575 -268.734375 670.9375 C-270.2503125 671.0921875 -270.2503125 671.0921875 -271.796875 671.25 C-275.94655708 671.97454767 -278.94793763 673.16019266 -282.734375 674.9375 C-282.734375 675.5975 -282.734375 676.2575 -282.734375 676.9375 C-283.58402832 677.04384766 -284.43368164 677.15019531 -285.30908203 677.25976562 C-289.03901244 677.99777609 -292.07263678 679.22272429 -295.5390625 680.78125 C-296.49404633 681.20860443 -296.49404633 681.20860443 -297.46832275 681.64459229 C-299.51947448 682.56672695 -301.56487086 683.50072711 -303.609375 684.4375 C-304.3068988 684.75529419 -305.00442261 685.07308838 -305.7230835 685.4005127 C-335.89794909 699.17235019 -361.65852253 715.82754232 -374.58520508 747.70751953 C-376.5232696 753.15485192 -377.70288224 758.71852287 -378.859375 764.375 C-379.34061743 766.64464335 -379.82238713 768.91417497 -380.3046875 771.18359375 C-380.53768555 772.3017749 -380.77068359 773.41995605 -381.01074219 774.57202148 C-381.72976226 777.91604703 -382.51954014 781.23722119 -383.3203125 784.5625 C-384.70692272 790.5146794 -385.54862516 796.4325934 -386.234375 802.5 C-387.06744704 809.34860798 -388.04184348 815.92291435 -389.9140625 822.57421875 C-391.3757991 828.56733883 -392.29287136 834.67045021 -393.28881836 840.75585938 C-393.95409004 844.75357119 -394.64098279 848.61258035 -395.76171875 852.51171875 C-397.01997726 856.9434164 -397.61524664 861.37908241 -398.234375 865.9375 C-398.86155194 870.55517638 -399.47037891 875.02351352 -400.765625 879.5078125 C-402.88927028 887.02620184 -404.36068691 896.55036995 -401.59765625 904.00390625 C-398.95546435 908.04373114 -395.68068118 911.99322471 -390.93834412 913.51311824 C-388.38885711 914.00403064 -386.0253445 914.0647785 -383.42790037 914.06745183 C-382.34369601 914.07098025 -381.25949164 914.07450867 -380.1424326 914.07814401 C-378.94950647 914.07694624 -377.75658033 914.07574846 -376.52750492 914.07451439 C-375.25641889 914.07716622 -373.98533286 914.07981804 -372.67572907 914.08255023 C-369.12947195 914.08979379 -365.58323599 914.0907795 -362.03697248 914.090773 C-358.18574238 914.09184132 -354.33452172 914.09863056 -350.48329681 914.1046797 C-342.83686927 914.11576125 -335.19044631 914.1214054 -327.54401215 914.12538858 C-318.38868539 914.13039498 -309.23336755 914.14112191 -300.07804605 914.15187032 C-277.94999432 914.17750639 -255.82193912 914.19253575 -233.6938768 914.20538078 C-226.36741106 914.20963426 -219.04094558 914.21419994 -211.71448016 914.2189641 C-172.77971828 914.24421925 -133.84495599 914.26627278 -94.91018772 914.27869225 C-85.88861146 914.28161369 -76.86703521 914.28458119 -67.84545898 914.28759766 C-66.72461746 914.28796857 -65.60377594 914.28833947 -64.44896952 914.28872162 C-28.08576806 914.30088471 8.27738509 914.33184172 44.64056386 914.37351918 C82.00678587 914.41626838 119.37298235 914.44292822 156.73922948 914.44816696 C162.01225493 914.44890745 167.28528034 914.44981814 172.55830574 914.45082474 C173.59612863 914.45101535 174.63395153 914.45120597 175.7032236 914.45140236 C192.43160152 914.45492127 209.15991906 914.47524343 225.88827477 914.50162137 C242.68876211 914.52771455 259.4891794 914.53551524 276.28968411 914.52452008 C286.28011111 914.51852622 296.27030119 914.52654415 306.26069252 914.55435092 C312.92626307 914.57153638 319.59167113 914.57071056 326.25724496 914.55498323 C330.0602785 914.54653007 333.86285827 914.54613354 337.66585069 914.56759469 C341.75522043 914.59048763 345.8435271 914.57503499 349.93291378 914.55553246 C351.12349875 914.56838168 352.31408372 914.5812309 353.54074702 914.59446949 C359.96664702 914.60051631 359.96664702 914.60051631 365.4375425 911.51899016 C366.04080972 910.66709841 366.64407695 909.81520665 367.265625 908.9375 C367.78769531 908.30328125 368.30976562 907.6690625 368.84765625 907.015625 C369.25371094 906.41234375 369.65976562 905.8090625 370.078125 905.1875 C370.49707031 904.59453125 370.91601562 904.0015625 371.34765625 903.390625 C374.10837541 896.01304357 371.71417162 887.1930816 370.453125 879.6875 C370.27080322 878.57576416 370.08848145 877.46402832 369.90063477 876.31860352 C368.80776863 869.78296695 367.55562572 863.34916962 365.9765625 856.9140625 C363.46809272 846.41156814 361.91786723 835.73297271 360.328125 825.0625 C359.09440453 816.78841116 357.64751812 808.65767151 355.69995117 800.5234375 C354.10673436 793.69288536 353.16313599 786.79609122 352.30444336 779.83862305 C352.14214233 778.57659058 352.14214233 778.57659058 351.9765625 777.2890625 C351.88681152 776.54479004 351.79706055 775.80051758 351.70458984 775.03369141 C351.22495638 772.74329489 350.35859975 770.99655489 349.265625 768.9375 C348.9466828 767.53088313 348.67973562 766.11190962 348.453125 764.6875 C343.84552616 740.73502055 333.00782776 721.67262235 313.265625 706.9375 C312.49992188 706.34582031 311.73421875 705.75414062 310.9453125 705.14453125 C303.89886714 699.92538443 296.1667483 695.99449569 288.37890625 692.01757812 C286.41934103 691.01606281 284.46694986 690.00182169 282.515625 688.984375 C275.83126868 685.55267421 269.12813302 682.65385374 262.08203125 680.05078125 C259.23193561 678.92418311 256.79461613 677.5754745 254.203125 675.96875 C251.48483392 674.52191765 248.64975209 673.51249283 245.765625 672.4375 C238.890625 669.875 238.890625 669.875 235.765625 667.9375 C232.78482426 666.10985575 229.72812968 664.91103849 226.453125 663.6875 C220.86469361 661.59830632 215.40330492 659.30180042 209.953125 656.875 C208.84263794 656.38241699 208.84263794 656.38241699 207.7097168 655.87988281 C204.13350708 654.2780097 200.60477707 652.61926767 197.11328125 650.83984375 C193.81846986 649.17398257 190.49102516 647.81899083 187.015625 646.5625 C181.5713739 644.51776975 176.48583079 642.0844589 171.32421875 639.41796875 C167.04823979 637.34824203 162.6417018 635.72366896 158.17578125 634.11328125 C155.31753157 632.95847165 152.90266539 631.52136981 150.265625 629.9375 C148.24033814 629.10482238 146.19693887 628.31530287 144.140625 627.5625 C135.94138847 624.47966135 128.09553691 620.85245596 120.265625 616.9375 C118.84974888 616.33148298 117.43299827 615.72750711 116.015625 615.125 C102.62947396 609.15306393 94.20555702 601.48806415 88.265625 587.9375 C84.80166462 577.37189895 83.64395571 567.4424774 83.79907227 556.38110352 C83.82834191 554.10815596 83.81955436 551.83751399 83.80664062 549.56445312 C83.8198342 537.02656026 85.50405958 527.40426806 92.953125 517.125 C94.03467785 515.5674789 95.11277915 514.00755564 96.1875 512.4453125 C96.71279297 511.68508789 97.23808594 510.92486328 97.77929688 510.14160156 C105.16014991 499.19640755 110.85149683 487.42302241 115.078125 474.9375 C115.29750732 474.28982666 115.51688965 473.64215332 115.74291992 472.97485352 C116.66147436 470.16504851 117.265625 467.91522073 117.265625 464.9375 C117.925625 464.9375 118.585625 464.9375 119.265625 464.9375 C122.26624562 456.51054936 122.26624562 456.51054936 123.890625 447.75 C125.04784845 441.14639465 130.26245938 437.8923833 135.265625 433.9375 C143.88379339 426.1210217 148.67330393 416.4532497 153.265625 405.9375 C153.65878906 405.16664063 154.05195312 404.39578125 154.45703125 403.6015625 C157.31486758 397.92807193 158.13118577 392.35997904 158.87109375 386.07421875 C159.265625 382.9375 159.265625 382.9375 159.77539062 381.15625 C160.84386597 376.32044126 160.53198854 371.2450213 160.56079102 366.31274414 C160.57227267 364.94642753 160.59266416 363.58015443 160.62231445 362.21411133 C160.83421013 352.43494843 160.44535292 344.77718496 153.890625 337.1875 C153.024375 336.445 152.158125 335.7025 151.265625 334.9375 C150.74355469 334.47214844 150.22148438 334.00679688 149.68359375 333.52734375 C146.88244996 330.80364323 146.88244996 330.80364323 143.265625 329.9375 C143.43952759 328.65456055 143.43952759 328.65456055 143.61694336 327.34570312 C144.05569279 324.08830106 144.48927304 320.83028862 144.91967773 317.57177734 C145.1048733 316.17730737 145.29196596 314.78308768 145.48120117 313.38916016 C145.75713587 311.35386583 146.02559348 309.31768462 146.29296875 307.28125 C146.45531006 306.06630859 146.61765137 304.85136719 146.78491211 303.59960938 C148.40710936 289.06505705 148.4006036 274.54098674 148.36328125 259.9375 C148.36141161 257.76318393 148.35999029 255.58886743 148.35899353 253.41455078 C148.35521131 247.74628496 148.34541872 242.07804556 148.33428955 236.40979004 C148.32398208 230.60392616 148.31947609 224.79805793 148.31445312 218.9921875 C148.30379174 207.64061351 148.28676822 196.28905897 148.265625 184.9375 C148.86841278 184.79057205 149.47120056 184.6436441 150.09225464 184.49226379 C155.27330695 183.16977395 160.32015122 181.31425699 165.390625 179.625 C167.16953125 179.0381543 167.16953125 179.0381543 168.984375 178.43945312 C175.09634828 176.40550175 181.12376758 174.26963713 187.08496094 171.82836914 C195.31869138 168.46463399 203.54627539 165.68136992 212.265625 163.9375 C212.925625 163.6075 213.585625 163.2775 214.265625 162.9375 C214.265625 190.9875 214.265625 219.0375 214.265625 247.9375 C212.945625 248.2675 211.625625 248.5975 210.265625 248.9375 C204.76093653 252.67772979 201.0991223 256.52025947 199.265625 262.9375 C198.49571139 269.99504145 200.44391376 275.92480836 204.828125 281.4375 C205.6325 282.2625 206.436875 283.0875 207.265625 283.9375 C207.925625 283.9375 208.585625 283.9375 209.265625 283.9375 C209.09957764 284.82719482 208.93353027 285.71688965 208.76245117 286.63354492 C207.98818296 290.79654579 207.21876421 294.96040447 206.453125 299.125 C206.31556793 299.87281738 206.17801086 300.62063477 206.0362854 301.39111328 C204.1677822 311.58459411 202.44007578 321.77415953 201.1159668 332.05541992 C200.35910198 337.84402302 200.35910198 337.84402302 199.265625 338.9375 C198.98890453 340.96896057 198.98890453 340.96896057 198.953125 343.3125 C198.91574219 344.10398437 198.87835937 344.89546875 198.83984375 345.7109375 C199.07587378 348.02507554 199.07587378 348.02507554 200.78442383 349.54956055 C204.2532603 351.48996548 207.51757328 351.38616791 211.390625 351.37109375 C212.17453613 351.3763356 212.95844727 351.38157745 213.76611328 351.38697815 C215.42023537 351.3933894 217.0744031 351.39207293 218.72851562 351.38354492 C221.25733621 351.37502792 223.7839021 351.40381641 226.3125 351.43554688 C227.92187432 351.43715889 229.53125264 351.43658134 231.140625 351.43359375 C232.27201904 351.45044472 232.27201904 351.45044472 233.42626953 351.46763611 C236.94636051 351.42096444 238.90616589 351.20787837 241.75610352 349.06420898 C243.72844366 346.28545191 243.6031546 344.91907018 243.203125 341.5625 C243.07808594 340.50804687 242.95304688 339.45359375 242.82421875 338.3671875 C242.04598043 333.58891307 241.03750831 328.87929917 239.9609375 324.16015625 C239.38063103 321.47053354 238.94355064 318.85621667 238.640625 316.125 C238.61632645 313.08165336 238.61632645 313.08165336 237.265625 311.9375 C236.81741785 308.84901377 236.44712074 305.76156589 236.10351562 302.66015625 C235.63279935 298.76430934 234.79647385 295.53407259 233.265625 291.9375 C232.77249003 289.27177985 232.54038868 286.63934283 232.265625 283.9375 C232.86890625 283.67453125 233.4721875 283.4115625 234.09375 283.140625 C237.95037911 281.00421895 239.72683722 278.01255065 241.265625 273.9375 C242.09704703 267.69828165 242.26053403 262.074712 239.578125 256.3125 C235.5939563 252.22065106 232.64579482 250.08956793 227.265625 247.9375 C227.595625 217.9075 227.925625 187.8775 228.265625 156.9375 C233.545625 155.2875 238.825625 153.6375 244.265625 151.9375 C248.12722074 150.41335248 248.12722074 150.41335248 251.96875 148.83984375 C255.13766773 147.59491179 258.37058673 146.65912831 261.6484375 145.74609375 C264.52645861 144.85691409 267.3193561 143.81351273 270.13378906 142.74243164 C272.22880486 141.95140243 274.33250897 141.19064229 276.44140625 140.4375 C277.12396484 140.19 277.80652344 139.9425 278.50976562 139.6875 C279.90594754 139.18123574 281.3044673 138.6813793 282.70507812 138.1875 C287.63925457 136.47900355 287.63925457 136.47900355 291.265625 132.9375 C291.85522314 128.440513 291.85522314 128.440513 290.1953125 124.3984375 C287.39969134 122.28191459 284.28689668 121.22535153 281.015625 120.0625 C279.95903687 119.6761438 279.95903687 119.6761438 278.88110352 119.28198242 C272.85265161 117.09684504 266.77199699 115.07601298 260.66796875 113.11328125 C257.265625 111.9375 257.265625 111.9375 253.89453125 110.48046875 C249.74870522 108.71771172 245.55029427 107.31779614 241.265625 105.9375 C236.94699547 104.54626364 232.67108249 103.16512296 228.51171875 101.34375 C225.78380946 100.16198424 223.18342611 99.23565405 220.328125 98.4375 C216.67259626 97.37427275 213.11671166 96.18051945 209.5625 94.80859375 C206.64567631 93.7023834 203.70627529 92.6662031 200.765625 91.625 C195.59596297 89.78775618 190.45715879 87.88482379 185.328125 85.9375 C178.83146124 83.47332988 172.28234402 81.24011352 165.66796875 79.11328125 C162.11647289 77.88595605 158.71782745 76.41815562 155.265625 74.9375 C153.60904667 74.40502839 151.94282617 73.90093717 150.265625 73.4375 C146.76457691 72.47010513 143.53247337 71.19763423 140.20654297 69.74023438 C136.65120237 68.26979917 132.98623848 67.12291399 129.328125 65.9375 C121.63680034 63.43243752 114.09820585 60.66616522 106.578125 57.6875 C99.69529369 55.02473994 92.70804002 52.71223661 85.6887207 50.43652344 C80.75743375 48.82498571 76.02921449 47.00376977 71.265625 44.9375 C68.79531682 44.07826237 66.31577844 43.24514607 63.828125 42.4375 C57.71355778 40.43057606 51.69082102 38.29189049 45.70703125 35.92578125 C29.90351186 29.74000838 13.78527387 24.36377024 -2.34765625 19.10791016 C-3.58708984 18.70064697 -3.58708984 18.70064697 -4.8515625 18.28515625 C-5.57972168 18.04804932 -6.30788086 17.81094238 -7.05810547 17.56665039 C-8.734375 16.9375 -8.734375 16.9375 -9.734375 15.9375 C-16.96665232 14.87615951 -22.41490678 16.71513254 -28.94921875 19.69140625 Z " fill="#191E27" transform="translate(645.734375,147.0625)"/>
<path d="M0 0 C83.82 0 167.64 0 254 0 C254 0.33 254 0.66 254 1 C253.11183594 1.02578125 252.22367188 1.0515625 251.30859375 1.078125 C191.07852769 3.75231562 131.61607434 30.86137084 88 72 C86.56957232 73.258087 85.13288431 74.50912513 83.6875 75.75 C77.24314074 81.37223935 71.71860494 87.40627313 66.3671875 94.08203125 C64.84295971 95.96090609 63.28753551 97.81510768 61.6953125 99.63671875 C49.0294549 114.19207314 38.81753239 130.88117537 30 148 C29.62037109 148.73331543 29.24074219 149.46663086 28.84960938 150.22216797 C18.73150599 170.01452267 11.71304496 190.98257504 6.57714844 212.57470703 C6.08166205 214.65683978 5.56266189 216.73335226 5.0390625 218.80859375 C2.59909625 229.06369942 1.83594595 239.51540676 1 250 C0.67 250 0.34 250 0 250 C0 167.5 0 85 0 0 Z " fill="#000001" transform="translate(0,0)"/>
<path d="M0 0 C0.33 0 0.66 0 1 0 C1.06316406 1.31226563 1.12632813 2.62453125 1.19140625 3.9765625 C3.96367978 49.65028997 21.28743006 98.35527942 49 135 C49.90204345 136.22843168 50.80298204 137.45767504 51.703125 138.6875 C65.69990241 157.71104755 81.14728322 175.59510916 100 190 C101.28463357 191.01203228 102.5684217 192.02513823 103.8515625 193.0390625 C147.26468076 227.10321623 197.31559628 245.36504368 252 250 C252 250.33 252 250.66 252 251 C168.84 251 85.68 251 0 251 C0 168.17 0 85.34 0 0 Z " fill="#000001" transform="translate(0,1003)"/>
<path d="M0 0 C83.16 0 166.32 0 252 0 C252 82.5 252 165 252 250 C251.67 250 251.34 250 251 250 C250.92483154 249.26587891 250.84966309 248.53175781 250.7722168 247.77539062 C248.98047172 230.47279422 247.19503069 213.65101078 242 197 C241.7205957 196.10047607 241.44119141 195.20095215 241.15332031 194.27416992 C232.96253568 168.23138381 222.08419286 142.24024416 206 120 C205.14969287 118.80081437 204.29943546 117.60159348 203.44921875 116.40234375 C197.36765374 107.90360697 190.85606588 99.88177652 184 92 C183.39800781 91.28585938 182.79601563 90.57171875 182.17578125 89.8359375 C174.5677544 80.88315046 166.05786967 72.47854881 157 65 C156.50226074 64.58314941 156.00452148 64.16629883 155.49169922 63.73681641 C128.05129227 40.83398763 95.29015728 22.37014401 61 12 C60.31744141 11.79133301 59.63488281 11.58266602 58.93164062 11.36767578 C39.56471624 5.51595869 20.16055995 2.43607869 0 1 C0 0.67 0 0.34 0 0 Z " fill="#000001" transform="translate(1002,0)"/>
<path d="M0 0 C0.33 0 0.66 0 1 0 C1 82.5 1 165 1 250 C-81.83 250 -164.66 250 -250 250 C-250 249.67 -250 249.34 -250 249 C-249.14664063 248.98582031 -248.29328125 248.97164062 -247.4140625 248.95703125 C-228.40012695 248.23175742 -209.97023011 243.79890832 -191.75 238.5625 C-190.49050537 238.20349609 -189.23101074 237.84449219 -187.93334961 237.47460938 C-179.31996959 234.92317056 -171.17680125 231.70928336 -163 228 C-162.03255859 227.56598877 -161.06511719 227.13197754 -160.06835938 226.68481445 C-120.61189764 208.76558568 -82.94599186 182.07816661 -57.22558594 146.67871094 C-55.94642191 144.92661296 -54.63652826 143.20096578 -53.3203125 141.4765625 C-30.58663489 111.46116154 -15.52018588 78.32037748 -6 42 C-5.53980469 40.29650391 -5.53980469 40.29650391 -5.0703125 38.55859375 C-2.01306736 25.9671563 -1.24812832 12.86655751 0 0 Z " fill="#000001" transform="translate(1253,1004)"/>
<path d="M0 0 C0.33 0 0.66 0 1 0 C1.66 4.62 2.32 9.24 3 14 C2.01 14 1.02 14 0 14 C-0.33 19.28 -0.66 24.56 -1 30 C-1.33 30 -1.66 30 -2 30 C-2.02887814 26.52085059 -2.04675687 23.04173169 -2.0625 19.5625 C-2.07087891 18.56927734 -2.07925781 17.57605469 -2.08789062 16.55273438 C-2.09111328 15.60849609 -2.09433594 14.66425781 -2.09765625 13.69140625 C-2.10289307 12.81685791 -2.10812988 11.94230957 -2.11352539 11.04125977 C-2 9 -2 9 -1 8 C-0.76924918 6.65252916 -0.58846937 5.29622435 -0.4375 3.9375 C-0.293125 2.638125 -0.14875 1.33875 0 0 Z " fill="#054BCD" transform="translate(826,489)"/>
<path d="M0 0 C-0.66 0 -1.32 0 -2 0 C-2 0.66 -2 1.32 -2 2 C-9.59 2 -17.18 2 -25 2 C-25 1.67 -25 1.34 -25 1 C-23.35451172 0.90912109 -23.35451172 0.90912109 -21.67578125 0.81640625 C-20.22134346 0.73195502 -18.76691695 0.64730934 -17.3125 0.5625 C-16.59126953 0.52318359 -15.87003906 0.48386719 -15.12695312 0.44335938 C-1.15761265 -0.38587088 -1.15761265 -0.38587088 0 0 Z " fill="#000F34" transform="translate(1028,1252)"/>
<path d="M0 0 C0.66 0.99 1.32 1.98 2 3 C1.731875 3.515625 1.46375 4.03125 1.1875 4.5625 C-0.32349407 7.66401415 -1.65572726 10.82262806 -3 14 C-3.66 14 -4.32 14 -5 14 C-4.54636829 12.41531323 -4.08688548 10.83230076 -3.625 9.25 C-3.36976563 8.36828125 -3.11453125 7.4865625 -2.8515625 6.578125 C-2.0790066 4.23919428 -1.16374324 2.16557438 0 0 Z " fill="#4E5156" transform="translate(801,546)"/>
<path d="M0 0 C0.66 0.33 1.32 0.66 2 1 C-1.63 4.63 -5.26 8.26 -9 12 C-9 8.47601214 -8.44884893 7.98495633 -6.1875 5.4375 C-5.40439453 4.53837891 -5.40439453 4.53837891 -4.60546875 3.62109375 C-3 2 -3 2 0 0 Z " fill="#C8C9CB" transform="translate(469,478)"/>
<path d="M0 0 C0 3.80345877 -1.13786331 4.77701015 -3.5 7.6875 C-4.1496875 8.49574219 -4.799375 9.30398438 -5.46875 10.13671875 C-5.9740625 10.75160156 -6.479375 11.36648438 -7 12 C-7.99 11.67 -8.98 11.34 -10 11 C-6.7 7.37 -3.4 3.74 0 0 Z " fill="#0754E4" transform="translate(803,583)"/>
<path d="M0 0 C0.33 0 0.66 0 1 0 C1.08076963 2.45898655 1.14037143 4.91533742 1.1875 7.375 C1.21263672 8.07367187 1.23777344 8.77234375 1.26367188 9.4921875 C1.29296875 11.5234375 1.29296875 11.5234375 1 15 C0.01 15.66 -0.98 16.32 -2 17 C-1.34 11.39 -0.68 5.78 0 0 Z " fill="#B5B6B9" transform="translate(250,998)"/>
<path d="M0 0 C0.33 0 0.66 0 1 0 C1.08097324 2.27024968 1.13917704 4.54132075 1.1875 6.8125 C1.22230469 8.07707031 1.25710938 9.34164062 1.29296875 10.64453125 C1 14 1 14 -0.51171875 15.94921875 C-1.00285156 16.29597656 -1.49398438 16.64273438 -2 17 C-1.85848172 14.9163691 -1.71162064 12.83310062 -1.5625 10.75 C-1.48128906 9.58984375 -1.40007812 8.4296875 -1.31640625 7.234375 C-1.06752213 4.69022624 -0.71885058 2.44046752 0 0 Z " fill="#C3C4C7" transform="translate(262,934)"/>
<path d="M0 0 C0.66 0.33 1.32 0.66 2 1 C-0.64 3.64 -3.28 6.28 -6 9 C-6.66 8.34 -7.32 7.68 -8 7 C-6.625 5.5 -6.625 5.5 -5 4 C-4.34 4 -3.68 4 -3 4 C-3 3.01 -3 2.02 -3 1 C-2.01 0.67 -1.02 0.34 0 0 Z " fill="#0661F6" transform="translate(1173,1174)"/>
<path d="M0 0 C0.33 0 0.66 0 1 0 C1.0810206 2.10353495 1.13919907 4.20795952 1.1875 6.3125 C1.22230469 7.48425781 1.25710938 8.65601563 1.29296875 9.86328125 C1 13 1 13 -2 16 C-1.34 10.72 -0.68 5.44 0 0 Z " fill="#CFD0D2" transform="translate(255,973)"/>
<path d="M0 0 C0.99 0 1.98 0 3 0 C3 2.97 3 5.94 3 9 C2.34 8.67 1.68 8.34 1 8 C0.40644386 5.35139573 0.25790731 2.70802678 0 0 Z " fill="#000615" transform="translate(1251,225)"/>
<path d="M0 0 C0.33 0 0.66 0 1 0 C2.32854177 5.9180497 1.66464729 8.77729131 -1 14 C-2.15837573 10.52487282 -1.77265943 8.86329714 -1.0625 5.3125 C-0.86785156 4.31863281 -0.67320312 3.32476563 -0.47265625 2.30078125 C-0.31667969 1.54152344 -0.16070312 0.78226563 0 0 Z " fill="#0E2F67" transform="translate(235,982)"/>
<path d="M0 0 C0.66 0.33 1.32 0.66 2 1 C-0.97 2.65 -3.94 4.3 -7 6 C-7.66 5.34 -8.32 4.68 -9 4 C-7.54618103 3.30300448 -6.08677047 2.61766134 -4.625 1.9375 C-3.40683594 1.36322266 -3.40683594 1.36322266 -2.1640625 0.77734375 C-1.44992187 0.52082031 -0.73578125 0.26429688 0 0 Z " fill="#B2B3B6" transform="translate(461,779)"/>
<path d="M0 0 C2.31 0 4.62 0 7 0 C7 0.99 7 1.98 7 3 C4.36 2.67 1.72 2.34 -1 2 C-0.67 1.34 -0.34 0.68 0 0 Z " fill="#02060D" transform="translate(1021,0)"/>
<path d="M0 0 C0.66 0.33 1.32 0.66 2 1 C-0.75 3.0625 -0.75 3.0625 -4 5 C-6.203125 4.62109375 -6.203125 4.62109375 -8 4 C-6.71349294 3.30289269 -5.42059335 2.61757124 -4.125 1.9375 C-3.40570313 1.55464844 -2.68640625 1.17179688 -1.9453125 0.77734375 C-1.30335938 0.52082031 -0.66140625 0.26429688 0 0 Z " fill="#122B54" transform="translate(453,763)"/>
<path d="M0 0 C0.33 1.32 0.66 2.64 1 4 C-1.97 6.475 -1.97 6.475 -5 9 C-3.7508258 5.54074837 -2.32472205 2.85306797 0 0 Z " fill="#C6C7C9" transform="translate(286,869)"/>
<path d="M0 0 C0.66 0.66 1.32 1.32 2 2 C1.60495559 4.9628331 0.40182371 7.38326241 -1 10 C-2.31223496 6.06329512 -1.24296256 3.87511856 0 0 Z " fill="#0454E0" transform="translate(785,603)"/>
</svg>
